<svg xmlns="http://www.w3.org/2000/svg" xmlns:xlink="http://www.w3.org/1999/xlink" width="86.5" height="86.5" viewBox="0 0 86.5 86.5">
  <defs>
    <clipPath id="clip-path">
      <rect width="86.5" height="86.5" fill="none"/>
    </clipPath>
    <filter id="Trazado_178" x="0" y="0" width="86.5" height="86.5" filterUnits="userSpaceOnUse">
      <feOffset dy="2" input="SourceAlpha"/>
      <feGaussianBlur stdDeviation="3" result="blur"/>
      <feFlood flood-opacity="0.161"/>
      <feComposite operator="in" in2="blur"/>
      <feComposite in="SourceGraphic"/>
    </filter>
    <filter id="Trazado_179" x="16.263" y="21.391" width="54.045" height="47.923" filterUnits="userSpaceOnUse">
      <feOffset dy="3" input="SourceAlpha"/>
      <feGaussianBlur stdDeviation="3" result="blur-2"/>
      <feFlood flood-opacity="0.161"/>
      <feComposite operator="in" in2="blur-2"/>
      <feComposite in="SourceGraphic"/>
    </filter>
  </defs>
  <g id="Cuadrícula_de_repetición_1" data-name="Cuadrícula de repetición 1" clip-path="url(#clip-path)">
    <g transform="translate(-163.75 -221.75)">
      <g id="checked" transform="translate(172.75 228.75)">
        <g id="Check_Circle">
          <g transform="matrix(1, 0, 0, 1, -9, -7)" filter="url(#Trazado_178)">
            <path id="Trazado_178-2" data-name="Trazado 178" d="M34.25,0A34.25,34.25,0,1,0,68.5,34.25,34.249,34.249,0,0,0,34.25,0Zm0,64.219A29.969,29.969,0,1,1,64.219,34.25,29.969,29.969,0,0,1,34.25,64.219Z" transform="translate(9 7)" fill="#bd0f14"/>
          </g>
          <g transform="matrix(1, 0, 0, 1, -9, -7)" filter="url(#Trazado_179)">
            <path id="Trazado_179-2" data-name="Trazado 179" d="M116.889,122.191,96.307,145.857l-8.564-9.739a1.839,1.839,0,0,0-2.857,0,2.568,2.568,0,0,0,0,3.282l10,11.371a1.87,1.87,0,0,0,2.857,0l22-25.3a2.573,2.573,0,0,0,0-3.282A1.844,1.844,0,0,0,116.889,122.191Z" transform="translate(-59.03 -94.12)" fill="#bd0f14"/>
          </g>
        </g>
      </g>
    </g>
  </g>
</svg>
