<svg xmlns="http://www.w3.org/2000/svg" xmlns:xlink="http://www.w3.org/1999/xlink" width="131" height="131" viewBox="0 0 131 131">
  <defs>
    <filter id="Trazado_193" x="25.898" y="75.36" width="32.115" height="55.64" filterUnits="userSpaceOnUse">
      <feOffset dy="3" input="SourceAlpha"/>
      <feGaussianBlur stdDeviation="3" result="blur"/>
      <feFlood flood-opacity="0.161"/>
      <feComposite operator="in" in2="blur"/>
      <feComposite in="SourceGraphic"/>
    </filter>
    <filter id="Trazado_194" x="84.77" y="75.36" width="46.229" height="46.23" filterUnits="userSpaceOnUse">
      <feOffset dy="3" input="SourceAlpha"/>
      <feGaussianBlur stdDeviation="3" result="blur-2"/>
      <feFlood flood-opacity="0.161"/>
      <feComposite operator="in" in2="blur-2"/>
      <feComposite in="SourceGraphic"/>
    </filter>
    <filter id="Trazado_195" x="47.13" y="0" width="83.869" height="121.59" filterUnits="userSpaceOnUse">
      <feOffset dy="3" input="SourceAlpha"/>
      <feGaussianBlur stdDeviation="3" result="blur-3"/>
      <feFlood flood-opacity="0.161"/>
      <feComposite operator="in" in2="blur-3"/>
      <feComposite in="SourceGraphic"/>
    </filter>
    <filter id="Trazado_196" x="0" y="0" width="83.87" height="83.87" filterUnits="userSpaceOnUse">
      <feOffset dy="3" input="SourceAlpha"/>
      <feGaussianBlur stdDeviation="3" result="blur-4"/>
      <feFlood flood-opacity="0.161"/>
      <feComposite operator="in" in2="blur-4"/>
      <feComposite in="SourceGraphic"/>
    </filter>
  </defs>
  <g id="Grupo_540" data-name="Grupo 540" transform="translate(3883 -2185)">
    <g id="search_1_" data-name="search (1)" transform="translate(-3874 2191)">
      <g id="Grupo_548" data-name="Grupo 548" transform="translate(25.898 75.36)">
        <g id="Grupo_547" data-name="Grupo 547">
          <g transform="matrix(1, 0, 0, 1, -34.9, -81.36)" filter="url(#Trazado_193)">
            <path id="Trazado_193-2" data-name="Trazado 193" d="M124.39,341.333a7.057,7.057,0,0,0-7.057,7.057v23.525a7.057,7.057,0,0,0,14.115,0V348.39A7.058,7.058,0,0,0,124.39,341.333Zm2.353,30.582a2.353,2.353,0,0,1-4.705,0V348.39a2.353,2.353,0,1,1,4.705,0Z" transform="translate(-82.43 -259.97)" fill="#bd0f14"/>
          </g>
        </g>
      </g>
      <g id="Grupo_550" data-name="Grupo 550" transform="translate(31.186 64.712)">
        <g id="Grupo_549" data-name="Grupo 549" transform="translate(0 0)">
          <rect id="Rectángulo_401" data-name="Rectángulo 401" width="4" height="13" transform="translate(0.489 -0.386)" fill="#bd0f14"/>
        </g>
      </g>
      <g id="Grupo_552" data-name="Grupo 552" transform="translate(84.77 75.36)">
        <g id="Grupo_551" data-name="Grupo 551">
          <g transform="matrix(1, 0, 0, 1, -93.77, -81.36)" filter="url(#Trazado_194)">
            <path id="Trazado_194-2" data-name="Trazado 194" d="M409.877,341.333H395.762A11.776,11.776,0,0,0,384,353.1V367.21a2.352,2.352,0,0,0,4.016,1.663l23.525-23.525a2.353,2.353,0,0,0-1.664-4.016Zm-21.172,20.2V353.1a7.058,7.058,0,0,1,7.057-7.058H404.2Z" transform="translate(-290.23 -259.97)" fill="#bd0f14"/>
          </g>
        </g>
      </g>
      <g id="Grupo_554" data-name="Grupo 554" transform="translate(47.13 0)">
        <g id="Grupo_553" data-name="Grupo 553">
          <g transform="matrix(1, 0, 0, 1, -56.13, -6)" filter="url(#Trazado_195)">
            <path id="Trazado_195-2" data-name="Trazado 195" d="M267.44,0H227.448V4.709H267.44a7.06,7.06,0,0,1,7.057,7.063V76.718L252.351,98.881H213.333v4.709h39.992a2.352,2.352,0,0,0,1.663-.69l23.525-23.543a2.354,2.354,0,0,0,.689-1.664V11.772A11.781,11.781,0,0,0,267.44,0Z" transform="translate(-157.2 6)" fill="#bd0f14"/>
          </g>
        </g>
      </g>
      <g id="Grupo_556" data-name="Grupo 556" transform="translate(0 0)">
        <g id="Grupo_555" data-name="Grupo 555">
          <g transform="matrix(1, 0, 0, 1, -9, -6)" filter="url(#Trazado_196)">
            <path id="Trazado_196-2" data-name="Trazado 196" d="M32.935,0A32.935,32.935,0,1,0,65.87,32.935,32.935,32.935,0,0,0,32.935,0Zm0,61.165a28.23,28.23,0,1,1,28.23-28.23A28.23,28.23,0,0,1,32.935,61.165Z" transform="translate(9 6)" fill="#bd0f14"/>
          </g>
        </g>
      </g>
      <g id="Grupo_558" data-name="Grupo 558" transform="translate(14.115 14.115)">
        <g id="Grupo_557" data-name="Grupo 557">
          <path id="Trazado_197" data-name="Trazado 197" d="M64,82.82h4.7A14.129,14.129,0,0,1,82.82,68.7V64A18.841,18.841,0,0,0,64,82.82Z" transform="translate(-64 -64)" fill="#bd0f14"/>
        </g>
      </g>
    </g>
  </g>
</svg>
