<svg xmlns="http://www.w3.org/2000/svg" xmlns:xlink="http://www.w3.org/1999/xlink" width="88.5" height="80.429" viewBox="0 0 88.5 80.429">
  <defs>
    <style>
      .cls-1 {
        fill: none;
      }

      .cls-2 {
        fill: #bd0f14;
      }

      .cls-3 {
        filter: url(#Trazado_183);
      }
    </style>
    <filter id="Trazado_183" x="0" y="5.722" width="88.5" height="74.707" filterUnits="userSpaceOnUse">
      <feOffset dy="3" input="SourceAlpha"/>
      <feGaussianBlur stdDeviation="3" result="blur"/>
      <feFlood flood-opacity="0.161"/>
      <feComposite operator="in" in2="blur"/>
      <feComposite in="SourceGraphic"/>
    </filter>
  </defs>
  <g id="Componente_222_1" data-name="Componente 222 – 1" transform="translate(4.25)">
    <rect id="Rectángulo_428" data-name="Rectángulo 428" class="cls-1" width="80" height="80"/>
    <g id="Grupo_536" data-name="Grupo 536" transform="translate(4.75 -28.466)">
      <g id="Grupo_537" data-name="Grupo 537" transform="translate(0 50.188)">
        <g id="Grupo_535" data-name="Grupo 535" transform="translate(0 -10)">
          <g class="cls-3" transform="matrix(1, 0, 0, 1, -9, -11.72)">
            <path id="Trazado_183-2" data-name="Trazado 183" class="cls-2" d="M55.009,98.629H7.229a1.033,1.033,0,0,0,0,2.066h47.78a1.033,1.033,0,0,0,0-2.066Zm0-4.133H7.229a1.033,1.033,0,0,0,0,2.066h47.78a1.033,1.033,0,0,0,0-2.066Zm6.2-13.466a1.033,1.033,0,0,0-1.033,1.033v19.665a3.1,3.1,0,0,1-3.1,3.1H5.164a3.1,3.1,0,0,1-3.1-3.1V68.717a3.1,3.1,0,0,1,3.1-3.1H37.432a1.033,1.033,0,0,0,0-2.066H5.164A5.171,5.171,0,0,0,0,68.717v33.011a5.171,5.171,0,0,0,5.164,5.166H57.075a5.171,5.171,0,0,0,5.164-5.166V82.063A1.033,1.033,0,0,0,61.206,81.03ZM55.515,50.188A14.994,14.994,0,0,0,41.243,69.75H34.08a1.033,1.033,0,0,0,0,2.066h8a15.018,15.018,0,0,0,1.239,2.066H34.08a1.033,1.033,0,0,0,0,2.066H45.1A14.985,14.985,0,1,0,55.515,50.188Zm0,27.918A12.926,12.926,0,1,1,68.435,65.18,12.937,12.937,0,0,1,55.515,78.106ZM9.957,92.234a5.8,5.8,0,0,0,1.4.2H23.7a5.231,5.231,0,0,0,5.164-5.166V74.916A5.171,5.171,0,0,0,23.7,69.75H11.36A5.171,5.171,0,0,0,6.2,74.916V87.263A5.174,5.174,0,0,0,9.957,92.234Zm1.526-1.871a6.341,6.341,0,0,1,12.094,0Zm2.091-10.456a3.956,3.956,0,1,1,3.956,3.958A3.961,3.961,0,0,1,13.575,79.907ZM8.262,74.916a3.1,3.1,0,0,1,3.1-3.1H23.7a3.1,3.1,0,0,1,3.1,3.1V87.263a3.1,3.1,0,0,1-1.25,2.486A8.471,8.471,0,0,0,21.17,84.7a6.021,6.021,0,1,0-7.279,0A8.471,8.471,0,0,0,9.512,89.75a3.1,3.1,0,0,1-1.25-2.486ZM55.009,86.23H34.08a1.033,1.033,0,0,0,0,2.066h20.93a1.033,1.033,0,0,0,0-2.066Zm0,4.133H34.08a1.033,1.033,0,0,0,0,2.066h20.93a1.033,1.033,0,0,0,0-2.066Z" transform="translate(9 -38.47)"/>
          </g>
        </g>
        <g id="cancel" transform="translate(48.635 -0.975)">
          <g id="Grupo_521" data-name="Grupo 521">
            <g id="Trazado_177" data-name="Trazado 177">
              <path id="Trazado_184" data-name="Trazado 184" class="cls-2" d="M362.746,116.538l5.122-5.122a.462.462,0,1,0-.653-.653h0l-5.121,5.122-5.122-5.122a.462.462,0,1,0-.653.653l5.122,5.122-5.122,5.122a.462.462,0,0,0,.653.653l5.122-5.124,5.122,5.122a.462.462,0,0,0,.653-.653h0Z" transform="translate(-355.538 -109.981)"/>
              <path id="Trazado_185" data-name="Trazado 185" class="cls-2" d="M353.6,120.243a.912.912,0,0,1-.645-1.557l5-5-5-5a.912.912,0,0,1,1.29-1.291l5,5,5-5a.913.913,0,0,1,1.291,1.291l-5,5,5,5a.912.912,0,1,1-1.29,1.291l-5-5-5,5A.909.909,0,0,1,353.6,120.243Zm0-12.245a.044.044,0,0,0-.031.076l5.613,5.613-5.613,5.613a.045.045,0,0,0,0,.063.045.045,0,0,0,.063,0l5.613-5.615,5.613,5.613a.044.044,0,1,0,.063-.063l-5.615-5.611,5.613-5.613a.044.044,0,0,0,0-.063.044.044,0,0,0-.063,0l-5.612,5.613-5.613-5.613A.044.044,0,0,0,353.6,108Z" transform="translate(-352.687 -107.13)"/>
            </g>
          </g>
        </g>
      </g>
    </g>
  </g>
</svg>
