<svg xmlns="http://www.w3.org/2000/svg" width="40.02" height="38.57" viewBox="0 0 40.02 38.57">
  <g id="Grupo_121" data-name="Grupo 121" transform="translate(631 -517)">
    <g id="investigation" transform="translate(-631 517)">
      <circle id="Elipse_1" data-name="Elipse 1" cx="0.899" cy="0.899" r="0.899" transform="translate(10.698 35.715)" fill="#bd0f14"/>
      <path id="Trazado_188" data-name="Trazado 188" d="M39.484,42.19l-7.6-12.321a.8.8,0,0,0-1.1-.262l-.385.238-1.745-2.83A10.433,10.433,0,1,0,12.775,13.566H.8a.8.8,0,0,0-.8.8V46.185a.8.8,0,0,0,.8.8H7.958a.8.8,0,0,0,0-1.6H1.6V15.169H11.817a10.427,10.427,0,0,0,9.408,14.967c.3,0,.6-.014.9-.04V45.383H15.153a.8.8,0,0,0,0,1.6h7.773a.8.8,0,0,0,.8-.8V29.83q.335-.083.667-.189l1.745,2.83-.385.238a.8.8,0,0,0-.262,1.1l7.6,12.321a3.61,3.61,0,0,0,4.964,1.177l.252-.156h0a3.612,3.612,0,0,0,1.177-4.964ZM13.692,24.34a8.829,8.829,0,1,1,12.15,2.881A8.839,8.839,0,0,1,13.692,24.34ZM25.9,29.024c.265-.134.528-.279.785-.437s.505-.328.744-.5l1.606,2.605L27.5,31.63Zm5.045,2.369,5.479,8.885-3.664,2.26-5.479-8.885Zm6.522,14.4-.252.156a2.007,2.007,0,0,1-2.758-.654L33.6,43.9l3.664-2.26.856,1.389A2.007,2.007,0,0,1,37.465,45.79Z" transform="translate(0 -9.276)" fill="#bd0f14"/>
      <path id="Trazado_189" data-name="Trazado 189" d="M197.174,62.55a8.1,8.1,0,1,0-3.632,5.028,8.05,8.05,0,0,0,3.632-5.028Zm-4.6,3.459c-2.938,1.812-7.8.7-8.955-2.674h6.265a.922.922,0,1,0,0-1.844h-6.8a6.274,6.274,0,0,1,.036-1.844h6.766a.922.922,0,1,0,0-1.844h-6.154a6.259,6.259,0,1,1,8.844,8.206Z" transform="translate(-168.179 -48.685)" fill="#bd0f14"/>
      <path id="Trazado_190" data-name="Trazado 190" d="M42.3,153.064H47.28a.922.922,0,1,0,0-1.844H42.3a.922.922,0,1,0,0,1.844Z" transform="translate(-37.66 -140.197)" fill="#bd0f14"/>
      <path id="Trazado_191" data-name="Trazado 191" d="M42.3,194.09H47.28a.922.922,0,0,0,0-1.844H42.3a.922.922,0,0,0,0,1.844Z" transform="translate(-37.66 -178.037)" fill="#bd0f14"/>
      <path id="Trazado_192" data-name="Trazado 192" d="M42.3,235.115h7.9a.922.922,0,1,0,0-1.844H42.3a.922.922,0,1,0,0,1.844Z" transform="translate(-37.66 -215.877)" fill="#bd0f14"/>
      <path id="Trazado_193" data-name="Trazado 193" d="M42.3,276.141H55.27a.922.922,0,1,0,0-1.844H42.3a.922.922,0,1,0,0,1.844Z" transform="translate(-37.66 -253.717)" fill="#bd0f14"/>
      <path id="Trazado_194" data-name="Trazado 194" d="M42.3,317.166h18.04a.922.922,0,1,0,0-1.844H42.3a.922.922,0,1,0,0,1.844Z" transform="translate(-37.66 -291.556)" fill="#bd0f14"/>
      <path id="Trazado_195" data-name="Trazado 195" d="M42.3,358.192h18.04a.922.922,0,1,0,0-1.844H42.3a.922.922,0,1,0,0,1.844Z" transform="translate(-37.66 -329.396)" fill="#bd0f14"/>
    </g>
  </g>
</svg>
