<svg xmlns="http://www.w3.org/2000/svg" width="33.856" height="45.142" viewBox="0 0 33.856 45.142">
  <g id="Grupo_119" data-name="Grupo 119" transform="translate(700 -580)">
    <g id="invoice" transform="translate(-700 580)">
      <g id="Grupo_120" data-name="Grupo 120">
        <g id="Grupo_119-2" data-name="Grupo 119">
          <path id="Trazado_181" data-name="Trazado 181" d="M97.581,9.68l-9.4-9.4A.94.94,0,0,0,87.511,0H67.762A3.766,3.766,0,0,0,64,3.762V41.38a3.766,3.766,0,0,0,3.762,3.762H94.094a3.766,3.766,0,0,0,3.762-3.762V10.345A.94.94,0,0,0,97.581,9.68ZM88.452,3.211,94.645,9.4H90.333a1.883,1.883,0,0,1-1.881-1.881ZM95.975,41.38a1.883,1.883,0,0,1-1.881,1.881H67.762a1.883,1.883,0,0,1-1.881-1.881V3.762a1.883,1.883,0,0,1,1.881-1.881H86.571V7.524a3.766,3.766,0,0,0,3.762,3.762h5.643Z" transform="translate(-64)" fill="#bd0f14"/>
          <path id="Trazado_182" data-name="Trazado 182" d="M149.63,298.667H128.94a.94.94,0,1,0,0,1.881h20.69a.94.94,0,1,0,0-1.881Z" transform="translate(-122.357 -272.334)" fill="#bd0f14"/>
          <path id="Trazado_183" data-name="Trazado 183" d="M149.63,234.667H128.94a.94.94,0,1,0,0,1.881h20.69a.94.94,0,1,0,0-1.881Z" transform="translate(-122.357 -213.977)" fill="#bd0f14"/>
          <path id="Trazado_184" data-name="Trazado 184" d="M149.63,362.667H128.94a.94.94,0,1,0,0,1.881h20.69a.94.94,0,1,0,0-1.881Z" transform="translate(-122.357 -330.692)" fill="#bd0f14"/>
          <path id="Trazado_185" data-name="Trazado 185" d="M140.226,426.667H128.94a.94.94,0,1,0,0,1.881h11.285a.94.94,0,1,0,0-1.881Z" transform="translate(-122.357 -389.049)" fill="#bd0f14"/>
          <path id="Trazado_186" data-name="Trazado 186" d="M234.667,171.607a.94.94,0,0,0,.94.94h11.285a.94.94,0,0,0,0-1.881H235.607A.94.94,0,0,0,234.667,171.607Z" transform="translate(-219.62 -155.619)" fill="#bd0f14"/>
          <path id="Trazado_187" data-name="Trazado 187" d="M130.821,83.129H128.94a.94.94,0,0,0,0,1.881h.94a.94.94,0,1,0,1.881,0v-.173a2.814,2.814,0,0,0-.941-5.47.94.94,0,0,1,0-1.881H132.7a.94.94,0,0,0,0-1.881h-.94a.94.94,0,0,0-1.881,0v.173a2.814,2.814,0,0,0,.941,5.47.94.94,0,0,1,0,1.881Z" transform="translate(-122.357 -68.082)" fill="#bd0f14"/>
        </g>
      </g>
    </g>
  </g>
</svg>
