<svg id="Componente_228_3" data-name="Componente 228 – 3" xmlns="http://www.w3.org/2000/svg" width="40" height="40" viewBox="0 0 40 40">
  <rect id="Rectángulo_694" data-name="Rectángulo 694" width="40" height="40" fill="none"/>
  <g id="Componente_225_1" data-name="Componente 225 – 1" transform="translate(5 4.434)">
    <g id="Grupo_847" data-name="Grupo 847" transform="translate(0 0)">
      <g id="auction" transform="translate(0 0)">
        <g id="Grupo_101" data-name="Grupo 101" transform="translate(5.877 10.003)">
          <g id="Grupo_100" data-name="Grupo 100">
            <path id="Trazado_161" data-name="Trazado 161" d="M101.8,171.609a.644.644,0,1,0,0,.911A.645.645,0,0,0,101.8,171.609Z" transform="translate(-100.704 -171.42)" fill="#bd0f14"/>
          </g>
        </g>
        <g id="Grupo_103" data-name="Grupo 103" transform="translate(0 22.264)">
          <g id="Grupo_102" data-name="Grupo 102">
            <path id="Trazado_162" data-name="Trazado 162" d="M16.32,395.579a2.257,2.257,0,0,0-1.818-3.592H3.545a2.254,2.254,0,0,0-1.817,3.591A3.225,3.225,0,0,0,0,398.432v.645a.645.645,0,0,0,.645.645H17.4a.645.645,0,0,0,.645-.645v-.645A3.225,3.225,0,0,0,16.32,395.579Zm-13.459-2.02a.96.96,0,0,1,.684-.283H14.5a.967.967,0,1,1,0,1.934H3.545a.967.967,0,0,1-.684-1.651Zm-1.572,4.873A1.936,1.936,0,0,1,3.223,396.5h11.6a1.936,1.936,0,0,1,1.934,1.934Z" transform="translate(0 -391.987)" fill="#bd0f14"/>
          </g>
        </g>
        <g id="Grupo_105" data-name="Grupo 105" transform="translate(0.001)">
          <g id="Grupo_104" data-name="Grupo 104">
            <path id="Trazado_163" data-name="Trazado 163" d="M29.474,24.618a3.69,3.69,0,0,0-.706-.811l-2.738-2.388a.582.582,0,0,0-.233-.2l-1.656-1.444-7.663-6.685a1.755,1.755,0,0,0-.515-2.8l.709-.709a2.345,2.345,0,0,0,2.263-.606,2.343,2.343,0,0,0,0-3.315L13.964.688a2.343,2.343,0,0,0-3.92,2.263L2.97,10.024a2.358,2.358,0,0,0-.607-.079,2.343,2.343,0,0,0-1.657,4l4.971,4.972A2.343,2.343,0,0,0,9.6,16.654l.708-.708a1.758,1.758,0,0,0,2.8.514l8.162,9.378a.589.589,0,0,0,.079.1c.01.01.022.02.033.03l2.432,2.795c.06.071.125.142.192.209A3.485,3.485,0,0,0,26.481,30a3.6,3.6,0,0,0,.493-.034,3.546,3.546,0,0,0,2.616-1.811A3.467,3.467,0,0,0,29.474,24.618Zm-18-23.1a1.171,1.171,0,0,1,1.657,0l4.972,4.972A1.172,1.172,0,0,1,16.45,8.145L11.478,3.173h0A1.173,1.173,0,0,1,11.478,1.516ZM8.164,18.088a1.173,1.173,0,0,1-1.657,0L1.535,13.117a1.172,1.172,0,0,1,1.656-1.658l4.972,4.972A1.173,1.173,0,0,1,8.164,18.088Zm2.467-4.124L8.992,15.6,4.02,10.631,10.649,4l4.972,4.972L13.98,10.615l-.016.016-3.313,3.313Zm2.092,1.222,0,0-.413.413a.586.586,0,0,1-.836-.821L14.8,11.453a.586.586,0,0,1,.994.421.581.581,0,0,1-.172.414l-.41.41-.008.008Zm1.213.444,1.712-1.712,7.25,6.324-2.646,2.646Zm7.088,8.144,2.76-2.76.885.772L21.8,24.66Zm7.543,3.809a2.383,2.383,0,0,1-1.754,1.223,2.328,2.328,0,0,1-1.981-.664c-.045-.045-.088-.092-.128-.14L24.7,28l-2.132-2.449,2.988-2.988L28,24.692l.006,0a2.522,2.522,0,0,1,.483.556A2.313,2.313,0,0,1,28.568,27.583Z" transform="translate(-0.021 -0.001)" fill="#bd0f14"/>
          </g>
        </g>
        <g id="Grupo_107" data-name="Grupo 107" transform="translate(7.453 5.819)">
          <g id="Grupo_106" data-name="Grupo 106">
            <path id="Trazado_164" data-name="Trazado 164" d="M132.82,100.9a.645.645,0,0,0-.912,0l-2.735,2.735a.645.645,0,1,0,.912.911l2.735-2.735A.645.645,0,0,0,132.82,100.9Z" transform="translate(-128.985 -100.707)" fill="#bd0f14"/>
          </g>
        </g>
      </g>
    </g>
  </g>
</svg>
