<svg xmlns="http://www.w3.org/2000/svg" xmlns:xlink="http://www.w3.org/1999/xlink" width="88.5" height="80.429" viewBox="0 0 88.5 80.429">
  <defs>
    <style>
      .cls-1 {
        fill: none;
      }

      .cls-2 {
        fill: #bd0f14;
      }

      .cls-3 {
        filter: url(#Trazado_182);
      }
    </style>
    <filter id="Trazado_182" x="0" y="5.75" width="88.5" height="74.679" filterUnits="userSpaceOnUse">
      <feOffset dy="3" input="SourceAlpha"/>
      <feGaussianBlur stdDeviation="3" result="blur"/>
      <feFlood flood-opacity="0.161"/>
      <feComposite operator="in" in2="blur"/>
      <feComposite in="SourceGraphic"/>
    </filter>
  </defs>
  <g id="Componente_221_1" data-name="Componente 221 – 1" transform="translate(4.25)">
    <rect id="Rectángulo_428" data-name="Rectángulo 428" class="cls-1" width="80" height="80"/>
    <g id="id" transform="translate(4.75 11.75)">
      <g class="cls-3" transform="matrix(1, 0, 0, 1, -9, -11.75)">
        <path id="Trazado_182-2" data-name="Trazado 182" class="cls-2" d="M55.009,98.605H7.229a1.033,1.033,0,1,0,0,2.065h47.78a1.033,1.033,0,0,0,0-2.065Zm0-4.131H7.229a1.033,1.033,0,0,0,0,2.065h47.78a1.033,1.033,0,0,0,0-2.065Zm6.2-13.459a1.033,1.033,0,0,0-1.033,1.033V101.7a3.1,3.1,0,0,1-3.1,3.1H5.164a3.1,3.1,0,0,1-3.1-3.1v-33a3.1,3.1,0,0,1,3.1-3.1H37.432a1.033,1.033,0,0,0,0-2.065H5.164A5.169,5.169,0,0,0,0,68.708v33a5.169,5.169,0,0,0,5.164,5.164H57.075a5.169,5.169,0,0,0,5.164-5.164V82.047A1.033,1.033,0,0,0,61.206,81.015ZM55.515,50.188A14.986,14.986,0,0,0,41.243,69.741H34.08a1.033,1.033,0,0,0,0,2.065h8a15.01,15.01,0,0,0,1.239,2.065H34.08a1.033,1.033,0,0,0,0,2.065H45.1A14.982,14.982,0,1,0,55.515,50.188Zm0,27.9a12.92,12.92,0,1,1,12.92-12.92A12.934,12.934,0,0,1,55.515,78.093ZM9.957,92.214a5.806,5.806,0,0,0,1.4.2H23.7a5.23,5.23,0,0,0,5.164-5.164V74.9A5.169,5.169,0,0,0,23.7,69.741H11.36A5.169,5.169,0,0,0,6.2,74.9V87.245A5.172,5.172,0,0,0,9.957,92.214Zm1.526-1.87a6.342,6.342,0,0,1,12.094,0Zm2.091-10.451a3.956,3.956,0,1,1,3.956,3.956A3.96,3.96,0,0,1,13.575,79.893ZM8.262,74.9a3.1,3.1,0,0,1,3.1-3.1H23.7a3.1,3.1,0,0,1,3.1,3.1V87.245a3.1,3.1,0,0,1-1.25,2.485,8.468,8.468,0,0,0-4.379-5.045,6.021,6.021,0,1,0-7.279,0A8.468,8.468,0,0,0,9.512,89.73a3.1,3.1,0,0,1-1.25-2.485ZM60.669,61.548,53.5,68.712a.257.257,0,0,1-.363,0l-2.78-2.78a1.033,1.033,0,1,0-1.46,1.46l2.78,2.78a2.325,2.325,0,0,0,3.284,0l7.164-7.164a1.033,1.033,0,0,0-1.461-1.46ZM55.009,86.212H34.08a1.033,1.033,0,0,0,0,2.065h20.93a1.033,1.033,0,0,0,0-2.065Zm0,4.131H34.08a1.033,1.033,0,0,0,0,2.065h20.93a1.033,1.033,0,0,0,0-2.065Z" transform="translate(9 -38.44)"/>
      </g>
    </g>
  </g>
</svg>
