<svg xmlns="http://www.w3.org/2000/svg" width="45.82" height="46.391" viewBox="0 0 45.82 46.391">
  <g id="Grupo_122" data-name="Grupo 122" transform="translate(1007 -1270)">
    <g id="complain" transform="translate(-1007 1270)">
      <g id="Grupo_123" data-name="Grupo 123" transform="translate(0 0)">
        <g id="Grupo_122-2" data-name="Grupo 122">
          <path id="Trazado_196" data-name="Trazado 196" d="M16.738,26.821a13.442,13.442,0,0,0,6.09-1.551.029.029,0,0,1,.026,0,8.7,8.7,0,0,0,4.405.966,1.106,1.106,0,0,0,.714-1.793,10.955,10.955,0,0,1-1.352-2.14.033.033,0,0,1,.009-.031,13.4,13.4,0,0,0,.336-17.312.68.68,0,1,0-1.054.858,12.038,12.038,0,0,1-.3,15.555A1.386,1.386,0,0,0,25.4,22.89a12.485,12.485,0,0,0,1.223,2.023,8.552,8.552,0,0,1-3.184-.874,1.394,1.394,0,0,0-1.242.029,11.953,11.953,0,0,1-14.006-2.06A12.024,12.024,0,0,1,23.738,3.735a.68.68,0,1,0,.811-1.091A13.38,13.38,0,0,0,7.238,22.982a13.311,13.311,0,0,0,9.329,3.84Z" transform="translate(-3.151 0)" fill="#bd0f14"/>
          <path id="Trazado_197" data-name="Trazado 197" d="M197.343,123.807a2.4,2.4,0,1,0,2.4-2.4A2.4,2.4,0,0,0,197.343,123.807Zm3.445,0a1.043,1.043,0,1,1-1.043-1.043A1.044,1.044,0,0,1,200.788,123.807Z" transform="translate(-179.744 -110.402)" fill="#bd0f14"/>
          <path id="Trazado_198" data-name="Trazado 198" d="M124.623,123.807a2.4,2.4,0,1,0,2.4-2.4A2.4,2.4,0,0,0,124.623,123.807Zm3.445,0a1.043,1.043,0,1,1-1.043-1.043A1.044,1.044,0,0,1,128.068,123.807Z" transform="translate(-113.614 -110.402)" fill="#bd0f14"/>
          <path id="Trazado_199" data-name="Trazado 199" d="M51.9,123.807a2.4,2.4,0,1,0,2.4-2.4,2.4,2.4,0,0,0-2.4,2.4Zm3.445,0a1.043,1.043,0,1,1-1.043-1.043A1.044,1.044,0,0,1,55.349,123.807Z" transform="translate(-47.486 -110.402)" fill="#bd0f14"/>
          <path id="Trazado_200" data-name="Trazado 200" d="M156.808,38.942a.68.68,0,0,0-.747.6,25.96,25.96,0,0,1-.983,4.687,40.287,40.287,0,0,1-9.045,16.281,35.042,35.042,0,0,1-3.67,3.37q-.673.534-1.371,1.036-1.44,1.035-2.976,1.928a12.183,12.183,0,0,1-7.885,1.773q-.565-.1-1.091-.253c1.517-1.133,2.854-2.286,4.321-3.61,1.671-1.509,3.134-2.906,4.472-4.273l.005-.006.006-.006.789-.846a43.447,43.447,0,0,0,10.926-16.9l.427-1.219c1.233-3.567,2.366-7.353,3.373-11.267a9.975,9.975,0,0,1,2.006,3.089,10.129,10.129,0,0,1,.67,2.512.68.68,0,0,0,1.346-.188,11.489,11.489,0,0,0-.763-2.849q-.135-.323-.288-.637a12.19,12.19,0,0,0-3.934-4.485c-1.635-1.206-3.8-2.133-5.8-1.257a4.037,4.037,0,0,0-1.652,1.353,5.191,5.191,0,0,0-.682,1.294c-.04.108-1.379,4.348-1.882,6.44a3.419,3.419,0,0,0,1.019,3.752A5.735,5.735,0,0,0,144.55,40c.962.488,1.966.9,2.969,1.3l.413.166.553.21-.206.587a42.1,42.1,0,0,1-10.6,16.385l-.027.027-.334.358-.71-.7a29.08,29.08,0,0,0-2.245-2.192c-1.818-1.429-3.356-1.463-5.143-.112a50.683,50.683,0,0,0-5.329,4.525c-2.008,2.018-1.982,4.137.08,6.3a10.12,10.12,0,0,0,2.427,1.873l0,0a10.329,10.329,0,0,0,.933.458l.04.015a11.73,11.73,0,0,0,2.521.745,9.591,9.591,0,0,0,1.707.148,14.438,14.438,0,0,0,7.1-2.084q1.6-.932,3.108-2.015.757-.545,1.487-1.128a37.348,37.348,0,0,0,8.333-9.485q.694-1.122,1.311-2.289a47.121,47.121,0,0,0,3.44-8.482,27.312,27.312,0,0,0,1.033-4.935.68.68,0,0,0-.6-.747Zm-8.373,1.269c-.884-.345-1.743-.7-2.6-1.094a6.632,6.632,0,0,1-1.547-.888,2.116,2.116,0,0,1-.58-2.4c.475-1.977,1.764-6.069,1.839-6.3a3.841,3.841,0,0,1,.5-.954,2.7,2.7,0,0,1,1.1-.91c1.752-.768,3.707.5,5.051,1.527l.02.016c-.98,3.882-2.086,7.64-3.291,11.189ZM127.012,67.525v.005a8.769,8.769,0,0,1-2.057-1.6c-1.557-1.632-1.586-2.907-.1-4.4a48.648,48.648,0,0,1,5.185-4.4c1.281-.968,2.16-.944,3.484.1.682.536,2.854,2.8,2.854,2.8-1.186,1.191-2.476,2.415-3.926,3.724a54.432,54.432,0,0,1-4.928,4.045C127.349,67.71,127.18,67.619,127.012,67.525Z" transform="translate(-111.597 -23.716)" fill="#bd0f14"/>
        </g>
      </g>
    </g>
  </g>
</svg>
