<svg xmlns="http://www.w3.org/2000/svg" width="17.554" height="17.466" viewBox="0 0 17.554 17.466">
  <g id="editar" transform="translate(0 0)">
    <path id="Trazado_180" data-name="Trazado 180" d="M16.055,48.267a.431.431,0,0,0-.433.429v3.813a1.3,1.3,0,0,1-1.3,1.288H2.166a1.3,1.3,0,0,1-1.3-1.288V41.319a1.3,1.3,0,0,1,1.3-1.288H6.013a.429.429,0,1,0,0-.859H2.166A2.159,2.159,0,0,0,0,41.319v11.19a2.159,2.159,0,0,0,2.166,2.147H14.322a2.159,2.159,0,0,0,2.166-2.147V48.7A.431.431,0,0,0,16.055,48.267Zm0,0" transform="translate(0 -37.191)" fill="#fff"/>
    <path id="Trazado_181" data-name="Trazado 181" d="M121.86.932a2.292,2.292,0,0,0-3.241,0l-9.085,9.085a.509.509,0,0,0-.131.224l-1.195,4.313a.509.509,0,0,0,.627.627l4.313-1.195a.509.509,0,0,0,.224-.131l9.085-9.085a2.294,2.294,0,0,0,0-3.241Zm-11.216,9.416,7.435-7.436,2.4,2.4-7.436,7.436Zm-.479.961,1.916,1.916-2.65.734ZM121.737,4.05l-.54.54-2.4-2.4.54-.54a1.273,1.273,0,0,1,1.8,0l.6.6A1.275,1.275,0,0,1,121.737,4.05Zm0,0" transform="translate(-105.574 -0.261)" fill="#fff"/>
  </g>
</svg>
