<svg xmlns="http://www.w3.org/2000/svg" xmlns:xlink="http://www.w3.org/1999/xlink" width="149.766" height="18.302" viewBox="0 0 149.766 18.302">
  <defs>
    <clipPath id="clip-path">
      <rect id="Rectángulo_7" data-name="Rectángulo 7" width="16.782" height="6.644" fill="#bd0f14"/>
    </clipPath>
  </defs>
  <g id="Grupo_5" data-name="Grupo 5" transform="translate(-4 -7.18)">
    <g id="Grupo_1" data-name="Grupo 1" transform="translate(4 7.18)">
      <g id="Grupo_4" data-name="Grupo 4">
        <path id="Trazado_1" data-name="Trazado 1" d="M129.068,250.761a5.974,5.974,0,0,0-.681.2,1.246,1.246,0,0,0-.2.071,6.64,6.64,0,0,1-2.748.493,2.85,2.85,0,0,1-.881-.223c-.157-.071-.324-.145-.5-.224-.219-.094-.446-.184-.68-.269l-.048-.024q-1.046-.412-2.466-.9a1.65,1.65,0,0,0-.4-.094,3.659,3.659,0,0,0-1.433.176,14.085,14.085,0,0,0-3.7,1.949q-1.576,1.069-3.5,2.678a30.044,30.044,0,0,0,10.722.176,48.579,48.579,0,0,0,7.351-1.82,1.5,1.5,0,0,0,.764-.775.051.051,0,0,1,.011-.035.108.108,0,0,1,.012-.047,1.626,1.626,0,0,0,.023-.623c-.008-.055-.016-.1-.023-.141q-.235-.858-1.62-.563" transform="translate(-111.829 -238.077)" fill="#bd0f14"/>
        <g id="Grupo_3" data-name="Grupo 3" transform="translate(10.722 11.657)" opacity="0.7">
          <g id="Grupo_2" data-name="Grupo 2">
            <g id="Grupo_1-2" data-name="Grupo 1" clip-path="url(#clip-path)">
              <path id="Trazado_2" data-name="Trazado 2" d="M149.3,250.108q-.587.305-1.127.576-1.421.717-2.49,1.21-2.759,1.293-3.5,1.01a48.565,48.565,0,0,1-7.351,1.82q6.165,3.006,10.076.411A57.823,57.823,0,0,0,151.618,250q-.8-.67-2.314.1" transform="translate(-134.836 -249.692)" fill="#bd0f14"/>
            </g>
          </g>
        </g>
        <path id="Trazado_3" data-name="Trazado 3" d="M143.341,242.386h0l-7.151-6.444-3.042,3.042-3.628,3.863,6.682-5.3,6.01,4.834Z" transform="translate(-121.276 -230.087)" fill="#bd0f14"/>
        <path id="Trazado_4" data-name="Trazado 4" d="M128.36,235.619c0,.739.692-.481.764-.435l2.675-2.866V222l-3.439,2.331" transform="translate(-120.656 -222.002)" fill="#bd0f14"/>
        <path id="Trazado_5" data-name="Trazado 5" d="M139.79,224.082l-1.354-.877v6.87l1.354-1.354Zm-1.807-1.162-1.354-.869V231.9l1.354-1.374Z" transform="translate(-125.072 -222.028)" fill="#bd0f14"/>
        <path id="Trazado_6" data-name="Trazado 6" d="M177.134,233.453a2.4,2.4,0,0,0-.252,1.087v3.685a2.4,2.4,0,0,0,.252,1.087,2.664,2.664,0,0,0,.687.866,3.646,3.646,0,0,0,.983.584,3.357,3.357,0,0,0,1.167.2h5.146a1.036,1.036,0,0,0,.709-.262.8.8,0,0,0,0-1.249,1.035,1.035,0,0,0-.709-.262H179.97a1.137,1.137,0,0,1-.777-.282.909.909,0,0,1-.3-.684v-.947h6.154a1.035,1.035,0,0,0,.708-.262.8.8,0,0,0,.3-.624.765.765,0,0,0-.3-.624,1.034,1.034,0,0,0-.708-.262H178.9v-.966a.911.911,0,0,1,.3-.685,1.137,1.137,0,0,1,.777-.282h5.146a1.037,1.037,0,0,0,.709-.262.766.766,0,0,0,.3-.624.8.8,0,0,0-.3-.624,1.037,1.037,0,0,0-.709-.262H179.97a3.09,3.09,0,0,0-1.167.221,3.282,3.282,0,0,0-.983.564,2.973,2.973,0,0,0-.687.866" transform="translate(-148.619 -227.235)" fill="#bd0f14"/>
        <path id="Trazado_7" data-name="Trazado 7" d="M335.064,233.36a1.039,1.039,0,0,0,.71.262h3.2v6.5a.75.75,0,0,0,.3.6,1.092,1.092,0,0,0,1.419,0,.747.747,0,0,0,.3-.6v-6.5h3.179a1.067,1.067,0,0,0,.732-.262.8.8,0,0,0,0-1.248,1.071,1.071,0,0,0-.732-.262h-8.395a1.043,1.043,0,0,0-.71.262.848.848,0,0,0,0,1.248" transform="translate(-237.975 -227.261)" fill="#bd0f14"/>
        <path id="Trazado_8" data-name="Trazado 8" d="M310.224,231.8a1.042,1.042,0,0,0-.709.262.8.8,0,0,0-.3.624v7.392a.8.8,0,0,0,.3.624,1.089,1.089,0,0,0,1.418,0,.83.83,0,0,0,.274-.624v-1.993h3.386l3,2.638a1,1,0,0,0,.344.2l.365.06.39-.06a1.063,1.063,0,0,0,.321-.2.807.807,0,0,0,.3-.624.85.85,0,0,0-.3-.625l-1.877-1.651a3.7,3.7,0,0,0,.87-.463,3.148,3.148,0,0,0,.71-.665,3.422,3.422,0,0,0,.433-.826,2.784,2.784,0,0,0-.114-2.134,3.349,3.349,0,0,0-.778-1.007,3.912,3.912,0,0,0-2.494-.927h-5.535m6.954,2.619a1.039,1.039,0,0,1,.137.523,1.155,1.155,0,0,1-.137.544,1.2,1.2,0,0,1-.343.423,1.858,1.858,0,0,1-.481.3,1.707,1.707,0,0,1-.595.1h-4.553v-2.738h4.553a1.715,1.715,0,0,1,.595.1,1.842,1.842,0,0,1,.481.3,1.151,1.151,0,0,1,.343.444" transform="translate(-223.494 -227.235)" fill="#bd0f14"/>
        <path id="Trazado_9" data-name="Trazado 9" d="M286.3,233.453a2.4,2.4,0,0,0-.251,1.087v3.685a2.4,2.4,0,0,0,.251,1.087,2.68,2.68,0,0,0,.686.866,3.674,3.674,0,0,0,.984.584,3.356,3.356,0,0,0,1.166.2h5.147a1.035,1.035,0,0,0,.709-.262.8.8,0,0,0,0-1.249,1.035,1.035,0,0,0-.709-.262h-5.147a1.138,1.138,0,0,1-.777-.282.913.913,0,0,1-.3-.684v-.947h6.155a1.039,1.039,0,0,0,.709-.262.8.8,0,0,0,.3-.624.766.766,0,0,0-.3-.624,1.037,1.037,0,0,0-.709-.262h-6.155v-.966a.915.915,0,0,1,.3-.685,1.137,1.137,0,0,1,.777-.282h5.147a1.037,1.037,0,0,0,.709-.262.767.767,0,0,0,.3-.624.8.8,0,0,0-.3-.624,1.037,1.037,0,0,0-.709-.262h-5.147a3.089,3.089,0,0,0-1.166.221,3.305,3.305,0,0,0-.984.564,2.994,2.994,0,0,0-.686.866" transform="translate(-210.356 -227.235)" fill="#bd0f14"/>
        <path id="Trazado_10" data-name="Trazado 10" d="M262.026,232.093a.854.854,0,0,0-.274.645v7.387a.769.769,0,0,0,.274.6,1.035,1.035,0,0,0,.708.262h5.65a3.4,3.4,0,0,0,1.464-.322,3.074,3.074,0,0,0,.618-.382,2.063,2.063,0,0,0,.48-.5,2.54,2.54,0,0,0,.389-.7,2.072,2.072,0,0,0,.159-.805,2.319,2.319,0,0,0-.228-1.007,2.777,2.777,0,0,0-.594-.846,3.423,3.423,0,0,0,.594-.844,2.2,2.2,0,0,0,.228-.987,2.446,2.446,0,0,0-.366-1.288,3.251,3.251,0,0,0-.434-.563,2.788,2.788,0,0,0-.572-.422,3.609,3.609,0,0,0-.823-.343,3.412,3.412,0,0,0-.915-.121h-5.65a1.09,1.09,0,0,0-.708.241m7.319,2.939a1.3,1.3,0,0,1-.343.342,1.167,1.167,0,0,1-.549.161h-2.4a.988.988,0,0,0-.709.262.8.8,0,0,0,0,1.248.987.987,0,0,0,.709.261h2.288l.48.06a1.28,1.28,0,0,1,.48.382.855.855,0,0,1,.184.524.715.715,0,0,1-.092.363.893.893,0,0,1-.389.443,1.2,1.2,0,0,1-.618.16h-4.643V233.6h4.643a1.107,1.107,0,0,1,.526.121,1.218,1.218,0,0,1,.389.322.78.78,0,0,1,.184.543.768.768,0,0,1-.138.443" transform="translate(-196.631 -227.262)" fill="#bd0f14"/>
        <path id="Trazado_11" data-name="Trazado 11" d="M255.887,232.736a.807.807,0,0,0-.3-.625.989.989,0,0,0-.709-.262,1.042,1.042,0,0,0-.71.262.837.837,0,0,0-.274.625V240.1a.834.834,0,0,0,.274.624,1.037,1.037,0,0,0,.71.262.984.984,0,0,0,.709-.262.8.8,0,0,0,.3-.624v-7.366" transform="translate(-191.967 -227.261)" fill="#bd0f14"/>
        <path id="Trazado_12" data-name="Trazado 12" d="M202.237,232.688a.806.806,0,0,0-.3-.624,1.092,1.092,0,0,0-1.419,0,.833.833,0,0,0-.274.624v5.538a2.549,2.549,0,0,0,.228,1.067A2.76,2.76,0,0,0,201.6,240.5a5.359,5.359,0,0,0,.823.341,3.2,3.2,0,0,0,.915.121h4.918a1.034,1.034,0,0,0,.709-.262.8.8,0,0,0,0-1.248,1.034,1.034,0,0,0-.709-.262h-4.918a1.4,1.4,0,0,1-.526-.1.958.958,0,0,1-.389-.322.936.936,0,0,1-.183-.544v-5.538" transform="translate(-161.828 -227.235)" fill="#bd0f14"/>
        <path id="Trazado_13" data-name="Trazado 13" d="M232.573,232.064a.835.835,0,0,0-.274.624v5.538a2.543,2.543,0,0,0,.229,1.067,2.756,2.756,0,0,0,1.121,1.208,5.386,5.386,0,0,0,.824.342,3.215,3.215,0,0,0,.915.121h4.917a1.038,1.038,0,0,0,.71-.262.8.8,0,0,0,0-1.248,1.036,1.036,0,0,0-.71-.262h-4.917a1.406,1.406,0,0,1-.527-.1.956.956,0,0,1-.388-.322.935.935,0,0,1-.183-.543v-5.538a.805.805,0,0,0-.3-.624,1.092,1.092,0,0,0-1.419,0" transform="translate(-179.953 -227.235)" fill="#bd0f14"/>
        <path id="Trazado_14" data-name="Trazado 14" d="M406.563,233.885a4.751,4.751,0,0,0-.664,1.209,4.064,4.064,0,0,0-.229,1.369,3.642,3.642,0,0,0,.114.926,3.345,3.345,0,0,0,.3.846,4.776,4.776,0,0,0,1.9,2.034,5.351,5.351,0,0,0,1.395.563,5.752,5.752,0,0,0,1.532.2,6.6,6.6,0,0,0,1.03-.08,4.312,4.312,0,0,0,.984-.283,5.015,5.015,0,0,0,1.3-.665,5.1,5.1,0,0,0,1.007-.986,4.782,4.782,0,0,0,.641-1.209,3.676,3.676,0,0,0,.251-1.35,3.9,3.9,0,0,0-.435-1.812,4.31,4.31,0,0,0-.754-1.128,5.279,5.279,0,0,0-1.121-.886,6.059,6.059,0,0,0-1.372-.584,5.61,5.61,0,0,0-1.533-.2,5.329,5.329,0,0,0-1.051.1,4.919,4.919,0,0,0-1.006.262,5.693,5.693,0,0,0-1.282.685,5.085,5.085,0,0,0-1.005.987m2.538.222a2.7,2.7,0,0,1,.847-.362,3.717,3.717,0,0,1,.96-.121,3.508,3.508,0,0,1,1.236.222,3.971,3.971,0,0,1,.8.4,3.233,3.233,0,0,1,.617.625,2.38,2.38,0,0,1,.388.746,2.236,2.236,0,0,1,.16.846,2.48,2.48,0,0,1-.251,1.087,2.856,2.856,0,0,1-.479.705,5.112,5.112,0,0,1-.687.544,3.529,3.529,0,0,1-.847.342,3.477,3.477,0,0,1-.938.121,3.767,3.767,0,0,1-1.257-.2,3.087,3.087,0,0,1-1.418-1.027,2.472,2.472,0,0,1-.412-.746,2.562,2.562,0,0,1,.115-1.934,2.78,2.78,0,0,1,1.166-1.248" transform="translate(-278.939 -227.261)" fill="#bd0f14"/>
        <path id="Trazado_15" data-name="Trazado 15" d="M379.876,231.8a1.04,1.04,0,0,0-.709.261.848.848,0,0,0-.3.624v7.39a.806.806,0,0,0,.3.624,1.037,1.037,0,0,0,.709.262h4.484a5.22,5.22,0,0,0,1.029-.1,6.935,6.935,0,0,0,.985-.261,5.755,5.755,0,0,0,1.281-.685,4.37,4.37,0,0,0,1.007-.987,4.5,4.5,0,0,0,.641-1.168,4.182,4.182,0,0,0,.229-1.369,4.6,4.6,0,0,0-.092-.926,3.647,3.647,0,0,0-.3-.866,4.691,4.691,0,0,0-1.875-2.014,6.025,6.025,0,0,0-1.372-.564,5.26,5.26,0,0,0-1.533-.221h-4.484m4.484,1.772a3.389,3.389,0,0,1,1.235.221,3,3,0,0,1,1.395,1.027,2.194,2.194,0,0,1,.412.725,2.589,2.589,0,0,1,.137.845,2.4,2.4,0,0,1-.251,1.087,3.042,3.042,0,0,1-.48.685,2.86,2.86,0,0,1-.686.544,3.728,3.728,0,0,1-.824.362,3.5,3.5,0,0,1-.939.121h-3.477v-5.618h3.477" transform="translate(-262.929 -227.236)" fill="#bd0f14"/>
        <path id="Trazado_16" data-name="Trazado 16" d="M361.321,232.257l-.366-.062h-.594l-.367.062a.85.85,0,0,0-.5.5l-3.408,7.685a.9.9,0,0,0,.023.664l.229.291a.7.7,0,0,0,.3.187,2.177,2.177,0,0,0,.39.083l.364-.083a.932.932,0,0,0,.527-.5l1.029-2.347h3.409l1.052,2.347a.933.933,0,0,0,.527.5l.365.083a2.212,2.212,0,0,0,.39-.083.707.707,0,0,0,.3-.187l.228-.291a.9.9,0,0,0,.023-.664l-3.408-7.685a.85.85,0,0,0-.5-.5m.343,4.943q-1.079,0-2.036,0l1.029-2.43Z" transform="translate(-249.934 -227.595)" fill="#bd0f14"/>
        <path id="Trazado_17" data-name="Trazado 17" d="M434.459,231.8a1.043,1.043,0,0,0-.71.262.807.807,0,0,0-.3.624v7.392a.8.8,0,0,0,.3.624,1.09,1.09,0,0,0,1.419,0,.831.831,0,0,0,.274-.624v-1.993h3.385l3,2.638a.993.993,0,0,0,.344.2l.366.06.389-.06a1.06,1.06,0,0,0,.32-.2.8.8,0,0,0,.3-.624.844.844,0,0,0-.3-.625l-1.876-1.651a3.684,3.684,0,0,0,.869-.463,3.137,3.137,0,0,0,.709-.665,3.417,3.417,0,0,0,.435-.826,2.788,2.788,0,0,0-.115-2.134,3.362,3.362,0,0,0-.779-1.007,3.907,3.907,0,0,0-2.493-.927h-5.536m6.954,2.619a1.042,1.042,0,0,1,.137.523,1.159,1.159,0,0,1-.137.544,1.2,1.2,0,0,1-.343.423,1.867,1.867,0,0,1-.481.3,1.7,1.7,0,0,1-.594.1h-4.553v-2.738h4.553a1.709,1.709,0,0,1,.594.1,1.851,1.851,0,0,1,.481.3,1.159,1.159,0,0,1,.343.444" transform="translate(-293.774 -227.235)" fill="#bd0f14"/>
      </g>
    </g>
  </g>
</svg>
